<svg width="31" height="30" viewBox="0 0 31 30" fill="none" xmlns="http://www.w3.org/2000/svg">
<path d="M15.5033 7.30838C11.2468 7.30838 7.81344 10.7425 7.81344 15C7.81344 19.2575 11.2468 22.6916 15.5033 22.6916C19.7599 22.6916 23.1933 19.2575 23.1933 15C23.1933 10.7425 19.7599 7.30838 15.5033 7.30838ZM15.5033 20.0006C12.7527 20.0006 10.5039 17.758 10.5039 15C10.5039 12.242 12.746 9.99944 15.5033 9.99944C18.2607 9.99944 20.5028 12.242 20.5028 15C20.5028 17.758 18.254 20.0006 15.5033 20.0006ZM25.3015 6.99375C25.3015 7.99119 24.4983 8.7878 23.5078 8.7878C22.5106 8.7878 21.7142 7.98449 21.7142 6.99375C21.7142 6.00301 22.5173 5.19971 23.5078 5.19971C24.4983 5.19971 25.3015 6.00301 25.3015 6.99375ZM30.3946 8.81457C30.2808 6.41136 29.732 4.28261 27.9718 2.52873C26.2184 0.774852 24.0901 0.225929 21.6874 0.105433C19.2111 -0.0351445 11.7889 -0.0351445 9.3126 0.105433C6.91662 0.219235 4.78834 0.768158 3.02817 2.52203C1.26799 4.27591 0.725878 6.40466 0.60541 8.80788C0.464863 11.2847 0.464863 18.7086 0.60541 21.1854C0.719186 23.5886 1.26799 25.7174 3.02817 27.4713C4.78834 29.2251 6.90993 29.7741 9.3126 29.8946C11.7889 30.0351 19.2111 30.0351 21.6874 29.8946C24.0901 29.7808 26.2184 29.2318 27.9718 27.4713C29.7253 25.7174 30.2741 23.5886 30.3946 21.1854C30.5351 18.7086 30.5351 11.2914 30.3946 8.81457ZM27.1955 23.843C26.6735 25.1551 25.6629 26.1659 24.3444 26.6947C22.3701 27.478 17.6852 27.2972 15.5033 27.2972C13.3215 27.2972 8.62995 27.4713 6.6623 26.6947C5.35053 26.1726 4.33993 25.1618 3.81121 23.843C3.02817 21.8682 3.20887 17.1823 3.20887 15C3.20887 12.8177 3.03486 8.12507 3.81121 6.15698C4.33324 4.84492 5.34384 3.8341 6.6623 3.30525C8.63664 2.52203 13.3215 2.70278 15.5033 2.70278C17.6852 2.70278 22.3767 2.52873 24.3444 3.30525C25.6562 3.8274 26.6668 4.83822 27.1955 6.15698C27.9785 8.13176 27.7978 12.8177 27.7978 15C27.7978 17.1823 27.9785 21.8749 27.1955 23.843Z" fill="white"/>
</svg>
