<svg width="150" height="150" viewBox="0 0 45 45" fill="none" xmlns="http://www.w3.org/2000/svg">
<path d="M22.5 0C10.0706 0 0 10.0706 0 22.5C0 34.9294 10.0706 45 22.5 45C34.9294 45 45 34.9294 45 22.5C45 10.0706 34.9294 0 22.5 0ZM22.5 8.70968C26.9093 8.70968 30.4839 12.2843 30.4839 16.6935C30.4839 21.1028 26.9093 24.6774 22.5 24.6774C18.0907 24.6774 14.5161 21.1028 14.5161 16.6935C14.5161 12.2843 18.0907 8.70968 22.5 8.70968ZM22.5 39.9194C17.1744 39.9194 12.4022 37.5061 9.20867 33.7319C10.9143 30.5202 14.253 28.3065 18.1452 28.3065C18.3629 28.3065 18.5806 28.3427 18.7893 28.4063C19.9688 28.7873 21.2026 29.0323 22.5 29.0323C23.7974 29.0323 25.0403 28.7873 26.2107 28.4063C26.4194 28.3427 26.6371 28.3065 26.8548 28.3065C30.747 28.3065 34.0857 30.5202 35.7913 33.7319C32.5978 37.5061 27.8256 39.9194 22.5 39.9194Z" fill="black"/>
</svg>
