<svg width="31" height="30" viewBox="0 0 31 30" fill="none" xmlns="http://www.w3.org/2000/svg">
<path d="M13.0089 11.3906L19.3839 15.0134L13.0089 18.6362V11.3906ZM30.5 3.21429V26.7857C30.5 28.5603 29.0603 30 27.2857 30H3.71429C1.93973 30 0.5 28.5603 0.5 26.7857V3.21429C0.5 1.43973 1.93973 0 3.71429 0H27.2857C29.0603 0 30.5 1.43973 30.5 3.21429ZM27.6875 15.0201C27.6875 15.0201 27.6875 11.029 27.1786 9.11384C26.8973 8.0558 26.0737 7.22545 25.0223 6.9442C23.1272 6.42857 15.5 6.42857 15.5 6.42857C15.5 6.42857 7.87277 6.42857 5.97768 6.9442C4.92634 7.22545 4.10268 8.0558 3.82143 9.11384C3.3125 11.0223 3.3125 15.0201 3.3125 15.0201C3.3125 15.0201 3.3125 19.0112 3.82143 20.9263C4.10268 21.9844 4.92634 22.7812 5.97768 23.0625C7.87277 23.5714 15.5 23.5714 15.5 23.5714C15.5 23.5714 23.1272 23.5714 25.0223 23.0558C26.0737 22.7746 26.8973 21.9777 27.1786 20.9196C27.6875 19.0112 27.6875 15.0201 27.6875 15.0201Z" fill="white"/>
</svg>
